<svg xmlns="http://www.w3.org/2000/svg" viewBox="0 0 41 41" shape-rendering="crispEdges"><rect width="41" height="41" fill="#fff"/><path fill="#1c1813" d="M2 2h1v1h-1zM3 2h1v1h-1zM4 2h1v1h-1zM5 2h1v1h-1zM6 2h1v1h-1zM7 2h1v1h-1zM8 2h1v1h-1zM10 2h1v1h-1zM12 2h1v1h-1zM16 2h1v1h-1zM17 2h1v1h-1zM18 2h1v1h-1zM22 2h1v1h-1zM23 2h1v1h-1zM25 2h1v1h-1zM26 2h1v1h-1zM27 2h1v1h-1zM28 2h1v1h-1zM30 2h1v1h-1zM32 2h1v1h-1zM33 2h1v1h-1zM34 2h1v1h-1zM35 2h1v1h-1zM36 2h1v1h-1zM37 2h1v1h-1zM38 2h1v1h-1zM2 3h1v1h-1zM8 3h1v1h-1zM10 3h1v1h-1zM13 3h1v1h-1zM15 3h1v1h-1zM16 3h1v1h-1zM18 3h1v1h-1zM19 3h1v1h-1zM23 3h1v1h-1zM27 3h1v1h-1zM28 3h1v1h-1zM32 3h1v1h-1zM38 3h1v1h-1zM2 4h1v1h-1zM4 4h1v1h-1zM5 4h1v1h-1zM6 4h1v1h-1zM8 4h1v1h-1zM11 4h1v1h-1zM13 4h1v1h-1zM14 4h1v1h-1zM15 4h1v1h-1zM19 4h1v1h-1zM20 4h1v1h-1zM21 4h1v1h-1zM22 4h1v1h-1zM23 4h1v1h-1zM26 4h1v1h-1zM30 4h1v1h-1zM32 4h1v1h-1zM34 4h1v1h-1zM35 4h1v1h-1zM36 4h1v1h-1zM38 4h1v1h-1zM2 5h1v1h-1zM4 5h1v1h-1zM5 5h1v1h-1zM6 5h1v1h-1zM8 5h1v1h-1zM11 5h1v1h-1zM13 5h1v1h-1zM16 5h1v1h-1zM18 5h1v1h-1zM23 5h1v1h-1zM26 5h1v1h-1zM27 5h1v1h-1zM29 5h1v1h-1zM30 5h1v1h-1zM32 5h1v1h-1zM34 5h1v1h-1zM35 5h1v1h-1zM36 5h1v1h-1zM38 5h1v1h-1zM2 6h1v1h-1zM4 6h1v1h-1zM5 6h1v1h-1zM6 6h1v1h-1zM8 6h1v1h-1zM12 6h1v1h-1zM13 6h1v1h-1zM19 6h1v1h-1zM25 6h1v1h-1zM32 6h1v1h-1zM34 6h1v1h-1zM35 6h1v1h-1zM36 6h1v1h-1zM38 6h1v1h-1zM2 7h1v1h-1zM8 7h1v1h-1zM11 7h1v1h-1zM15 7h1v1h-1zM19 7h1v1h-1zM20 7h1v1h-1zM21 7h1v1h-1zM22 7h1v1h-1zM23 7h1v1h-1zM30 7h1v1h-1zM32 7h1v1h-1zM38 7h1v1h-1zM2 8h1v1h-1zM3 8h1v1h-1zM4 8h1v1h-1zM5 8h1v1h-1zM6 8h1v1h-1zM7 8h1v1h-1zM8 8h1v1h-1zM10 8h1v1h-1zM12 8h1v1h-1zM14 8h1v1h-1zM16 8h1v1h-1zM18 8h1v1h-1zM20 8h1v1h-1zM22 8h1v1h-1zM24 8h1v1h-1zM26 8h1v1h-1zM28 8h1v1h-1zM30 8h1v1h-1zM32 8h1v1h-1zM33 8h1v1h-1zM34 8h1v1h-1zM35 8h1v1h-1zM36 8h1v1h-1zM37 8h1v1h-1zM38 8h1v1h-1zM12 9h1v1h-1zM13 9h1v1h-1zM14 9h1v1h-1zM15 9h1v1h-1zM17 9h1v1h-1zM22 9h1v1h-1zM24 9h1v1h-1zM25 9h1v1h-1zM28 9h1v1h-1zM29 9h1v1h-1zM30 9h1v1h-1zM3 10h1v1h-1zM8 10h1v1h-1zM9 10h1v1h-1zM10 10h1v1h-1zM11 10h1v1h-1zM13 10h1v1h-1zM18 10h1v1h-1zM19 10h1v1h-1zM24 10h1v1h-1zM25 10h1v1h-1zM26 10h1v1h-1zM31 10h1v1h-1zM37 10h1v1h-1zM38 10h1v1h-1zM2 11h1v1h-1zM3 11h1v1h-1zM4 11h1v1h-1zM5 11h1v1h-1zM9 11h1v1h-1zM10 11h1v1h-1zM11 11h1v1h-1zM12 11h1v1h-1zM13 11h1v1h-1zM23 11h1v1h-1zM24 11h1v1h-1zM25 11h1v1h-1zM27 11h1v1h-1zM32 11h1v1h-1zM34 11h1v1h-1zM35 11h1v1h-1zM36 11h1v1h-1zM37 11h1v1h-1zM2 12h1v1h-1zM3 12h1v1h-1zM6 12h1v1h-1zM7 12h1v1h-1zM8 12h1v1h-1zM12 12h1v1h-1zM13 12h1v1h-1zM14 12h1v1h-1zM15 12h1v1h-1zM18 12h1v1h-1zM19 12h1v1h-1zM20 12h1v1h-1zM21 12h1v1h-1zM23 12h1v1h-1zM24 12h1v1h-1zM27 12h1v1h-1zM28 12h1v1h-1zM32 12h1v1h-1zM33 12h1v1h-1zM34 12h1v1h-1zM35 12h1v1h-1zM36 12h1v1h-1zM37 12h1v1h-1zM38 12h1v1h-1zM5 13h1v1h-1zM6 13h1v1h-1zM7 13h1v1h-1zM10 13h1v1h-1zM11 13h1v1h-1zM12 13h1v1h-1zM16 13h1v1h-1zM19 13h1v1h-1zM21 13h1v1h-1zM22 13h1v1h-1zM25 13h1v1h-1zM26 13h1v1h-1zM28 13h1v1h-1zM29 13h1v1h-1zM30 13h1v1h-1zM32 13h1v1h-1zM33 13h1v1h-1zM34 13h1v1h-1zM35 13h1v1h-1zM37 13h1v1h-1zM38 13h1v1h-1zM4 14h1v1h-1zM8 14h1v1h-1zM10 14h1v1h-1zM11 14h1v1h-1zM12 14h1v1h-1zM13 14h1v1h-1zM14 14h1v1h-1zM15 14h1v1h-1zM20 14h1v1h-1zM22 14h1v1h-1zM25 14h1v1h-1zM32 14h1v1h-1zM35 14h1v1h-1zM38 14h1v1h-1zM10 15h1v1h-1zM11 15h1v1h-1zM13 15h1v1h-1zM17 15h1v1h-1zM18 15h1v1h-1zM21 15h1v1h-1zM23 15h1v1h-1zM25 15h1v1h-1zM27 15h1v1h-1zM29 15h1v1h-1zM30 15h1v1h-1zM31 15h1v1h-1zM33 15h1v1h-1zM36 15h1v1h-1zM2 16h1v1h-1zM4 16h1v1h-1zM6 16h1v1h-1zM7 16h1v1h-1zM8 16h1v1h-1zM9 16h1v1h-1zM11 16h1v1h-1zM13 16h1v1h-1zM14 16h1v1h-1zM20 16h1v1h-1zM21 16h1v1h-1zM24 16h1v1h-1zM26 16h1v1h-1zM27 16h1v1h-1zM28 16h1v1h-1zM29 16h1v1h-1zM31 16h1v1h-1zM32 16h1v1h-1zM33 16h1v1h-1zM34 16h1v1h-1zM35 16h1v1h-1zM38 16h1v1h-1zM2 17h1v1h-1zM3 17h1v1h-1zM5 17h1v1h-1zM6 17h1v1h-1zM9 17h1v1h-1zM12 17h1v1h-1zM13 17h1v1h-1zM14 17h1v1h-1zM16 17h1v1h-1zM18 17h1v1h-1zM20 17h1v1h-1zM21 17h1v1h-1zM22 17h1v1h-1zM23 17h1v1h-1zM24 17h1v1h-1zM29 17h1v1h-1zM31 17h1v1h-1zM33 17h1v1h-1zM35 17h1v1h-1zM36 17h1v1h-1zM38 17h1v1h-1zM2 18h1v1h-1zM5 18h1v1h-1zM6 18h1v1h-1zM8 18h1v1h-1zM9 18h1v1h-1zM11 18h1v1h-1zM12 18h1v1h-1zM15 18h1v1h-1zM16 18h1v1h-1zM17 18h1v1h-1zM20 18h1v1h-1zM21 18h1v1h-1zM23 18h1v1h-1zM24 18h1v1h-1zM26 18h1v1h-1zM27 18h1v1h-1zM28 18h1v1h-1zM32 18h1v1h-1zM34 18h1v1h-1zM36 18h1v1h-1zM37 18h1v1h-1zM38 18h1v1h-1zM2 19h1v1h-1zM4 19h1v1h-1zM6 19h1v1h-1zM9 19h1v1h-1zM10 19h1v1h-1zM13 19h1v1h-1zM14 19h1v1h-1zM16 19h1v1h-1zM17 19h1v1h-1zM19 19h1v1h-1zM20 19h1v1h-1zM23 19h1v1h-1zM27 19h1v1h-1zM28 19h1v1h-1zM29 19h1v1h-1zM30 19h1v1h-1zM33 19h1v1h-1zM35 19h1v1h-1zM36 19h1v1h-1zM3 20h1v1h-1zM5 20h1v1h-1zM8 20h1v1h-1zM9 20h1v1h-1zM10 20h1v1h-1zM12 20h1v1h-1zM14 20h1v1h-1zM15 20h1v1h-1zM19 20h1v1h-1zM21 20h1v1h-1zM22 20h1v1h-1zM26 20h1v1h-1zM27 20h1v1h-1zM28 20h1v1h-1zM29 20h1v1h-1zM31 20h1v1h-1zM32 20h1v1h-1zM33 20h1v1h-1zM35 20h1v1h-1zM38 20h1v1h-1zM5 21h1v1h-1zM6 21h1v1h-1zM7 21h1v1h-1zM10 21h1v1h-1zM11 21h1v1h-1zM15 21h1v1h-1zM17 21h1v1h-1zM18 21h1v1h-1zM19 21h1v1h-1zM24 21h1v1h-1zM25 21h1v1h-1zM28 21h1v1h-1zM30 21h1v1h-1zM35 21h1v1h-1zM37 21h1v1h-1zM38 21h1v1h-1zM2 22h1v1h-1zM8 22h1v1h-1zM11 22h1v1h-1zM12 22h1v1h-1zM14 22h1v1h-1zM18 22h1v1h-1zM21 22h1v1h-1zM22 22h1v1h-1zM24 22h1v1h-1zM25 22h1v1h-1zM26 22h1v1h-1zM27 22h1v1h-1zM28 22h1v1h-1zM29 22h1v1h-1zM31 22h1v1h-1zM32 22h1v1h-1zM33 22h1v1h-1zM34 22h1v1h-1zM35 22h1v1h-1zM36 22h1v1h-1zM38 22h1v1h-1zM2 23h1v1h-1zM4 23h1v1h-1zM5 23h1v1h-1zM11 23h1v1h-1zM16 23h1v1h-1zM18 23h1v1h-1zM19 23h1v1h-1zM20 23h1v1h-1zM22 23h1v1h-1zM24 23h1v1h-1zM25 23h1v1h-1zM27 23h1v1h-1zM28 23h1v1h-1zM29 23h1v1h-1zM30 23h1v1h-1zM33 23h1v1h-1zM34 23h1v1h-1zM36 23h1v1h-1zM37 23h1v1h-1zM7 24h1v1h-1zM8 24h1v1h-1zM9 24h1v1h-1zM11 24h1v1h-1zM13 24h1v1h-1zM14 24h1v1h-1zM15 24h1v1h-1zM16 24h1v1h-1zM18 24h1v1h-1zM19 24h1v1h-1zM21 24h1v1h-1zM23 24h1v1h-1zM27 24h1v1h-1zM28 24h1v1h-1zM29 24h1v1h-1zM31 24h1v1h-1zM36 24h1v1h-1zM37 24h1v1h-1zM38 24h1v1h-1zM3 25h1v1h-1zM4 25h1v1h-1zM5 25h1v1h-1zM7 25h1v1h-1zM9 25h1v1h-1zM10 25h1v1h-1zM12 25h1v1h-1zM17 25h1v1h-1zM22 25h1v1h-1zM24 25h1v1h-1zM27 25h1v1h-1zM29 25h1v1h-1zM33 25h1v1h-1zM3 26h1v1h-1zM4 26h1v1h-1zM6 26h1v1h-1zM7 26h1v1h-1zM8 26h1v1h-1zM9 26h1v1h-1zM10 26h1v1h-1zM12 26h1v1h-1zM14 26h1v1h-1zM15 26h1v1h-1zM18 26h1v1h-1zM19 26h1v1h-1zM20 26h1v1h-1zM21 26h1v1h-1zM22 26h1v1h-1zM25 26h1v1h-1zM26 26h1v1h-1zM27 26h1v1h-1zM33 26h1v1h-1zM35 26h1v1h-1zM2 27h1v1h-1zM3 27h1v1h-1zM4 27h1v1h-1zM6 27h1v1h-1zM11 27h1v1h-1zM14 27h1v1h-1zM16 27h1v1h-1zM18 27h1v1h-1zM25 27h1v1h-1zM32 27h1v1h-1zM35 27h1v1h-1zM36 27h1v1h-1zM2 28h1v1h-1zM6 28h1v1h-1zM7 28h1v1h-1zM8 28h1v1h-1zM9 28h1v1h-1zM13 28h1v1h-1zM17 28h1v1h-1zM18 28h1v1h-1zM19 28h1v1h-1zM20 28h1v1h-1zM23 28h1v1h-1zM27 28h1v1h-1zM28 28h1v1h-1zM29 28h1v1h-1zM30 28h1v1h-1zM32 28h1v1h-1zM33 28h1v1h-1zM34 28h1v1h-1zM35 28h1v1h-1zM37 28h1v1h-1zM38 28h1v1h-1zM2 29h1v1h-1zM5 29h1v1h-1zM9 29h1v1h-1zM10 29h1v1h-1zM12 29h1v1h-1zM13 29h1v1h-1zM15 29h1v1h-1zM16 29h1v1h-1zM18 29h1v1h-1zM20 29h1v1h-1zM21 29h1v1h-1zM26 29h1v1h-1zM28 29h1v1h-1zM30 29h1v1h-1zM31 29h1v1h-1zM34 29h1v1h-1zM35 29h1v1h-1zM36 29h1v1h-1zM37 29h1v1h-1zM2 30h1v1h-1zM6 30h1v1h-1zM7 30h1v1h-1zM8 30h1v1h-1zM9 30h1v1h-1zM11 30h1v1h-1zM13 30h1v1h-1zM14 30h1v1h-1zM17 30h1v1h-1zM18 30h1v1h-1zM20 30h1v1h-1zM21 30h1v1h-1zM22 30h1v1h-1zM24 30h1v1h-1zM26 30h1v1h-1zM27 30h1v1h-1zM29 30h1v1h-1zM30 30h1v1h-1zM31 30h1v1h-1zM32 30h1v1h-1zM33 30h1v1h-1zM34 30h1v1h-1zM35 30h1v1h-1zM36 30h1v1h-1zM37 30h1v1h-1zM38 30h1v1h-1zM10 31h1v1h-1zM11 31h1v1h-1zM13 31h1v1h-1zM19 31h1v1h-1zM20 31h1v1h-1zM21 31h1v1h-1zM25 31h1v1h-1zM30 31h1v1h-1zM34 31h1v1h-1zM35 31h1v1h-1zM2 32h1v1h-1zM3 32h1v1h-1zM4 32h1v1h-1zM5 32h1v1h-1zM6 32h1v1h-1zM7 32h1v1h-1zM8 32h1v1h-1zM10 32h1v1h-1zM12 32h1v1h-1zM13 32h1v1h-1zM16 32h1v1h-1zM22 32h1v1h-1zM23 32h1v1h-1zM24 32h1v1h-1zM25 32h1v1h-1zM27 32h1v1h-1zM28 32h1v1h-1zM30 32h1v1h-1zM32 32h1v1h-1zM34 32h1v1h-1zM35 32h1v1h-1zM36 32h1v1h-1zM38 32h1v1h-1zM2 33h1v1h-1zM8 33h1v1h-1zM11 33h1v1h-1zM16 33h1v1h-1zM17 33h1v1h-1zM21 33h1v1h-1zM22 33h1v1h-1zM24 33h1v1h-1zM30 33h1v1h-1zM34 33h1v1h-1zM35 33h1v1h-1zM37 33h1v1h-1zM38 33h1v1h-1zM2 34h1v1h-1zM4 34h1v1h-1zM5 34h1v1h-1zM6 34h1v1h-1zM8 34h1v1h-1zM12 34h1v1h-1zM16 34h1v1h-1zM18 34h1v1h-1zM21 34h1v1h-1zM23 34h1v1h-1zM25 34h1v1h-1zM27 34h1v1h-1zM28 34h1v1h-1zM29 34h1v1h-1zM30 34h1v1h-1zM31 34h1v1h-1zM32 34h1v1h-1zM33 34h1v1h-1zM34 34h1v1h-1zM36 34h1v1h-1zM2 35h1v1h-1zM4 35h1v1h-1zM5 35h1v1h-1zM6 35h1v1h-1zM8 35h1v1h-1zM11 35h1v1h-1zM14 35h1v1h-1zM15 35h1v1h-1zM20 35h1v1h-1zM23 35h1v1h-1zM26 35h1v1h-1zM28 35h1v1h-1zM29 35h1v1h-1zM32 35h1v1h-1zM35 35h1v1h-1zM37 35h1v1h-1zM2 36h1v1h-1zM4 36h1v1h-1zM5 36h1v1h-1zM6 36h1v1h-1zM8 36h1v1h-1zM12 36h1v1h-1zM14 36h1v1h-1zM17 36h1v1h-1zM19 36h1v1h-1zM20 36h1v1h-1zM21 36h1v1h-1zM24 36h1v1h-1zM28 36h1v1h-1zM31 36h1v1h-1zM33 36h1v1h-1zM36 36h1v1h-1zM38 36h1v1h-1zM2 37h1v1h-1zM8 37h1v1h-1zM10 37h1v1h-1zM11 37h1v1h-1zM13 37h1v1h-1zM14 37h1v1h-1zM16 37h1v1h-1zM17 37h1v1h-1zM18 37h1v1h-1zM20 37h1v1h-1zM21 37h1v1h-1zM22 37h1v1h-1zM26 37h1v1h-1zM30 37h1v1h-1zM31 37h1v1h-1zM33 37h1v1h-1zM34 37h1v1h-1zM35 37h1v1h-1zM38 37h1v1h-1zM2 38h1v1h-1zM3 38h1v1h-1zM4 38h1v1h-1zM5 38h1v1h-1zM6 38h1v1h-1zM7 38h1v1h-1zM8 38h1v1h-1zM11 38h1v1h-1zM19 38h1v1h-1zM22 38h1v1h-1zM24 38h1v1h-1zM25 38h1v1h-1zM26 38h1v1h-1zM30 38h1v1h-1zM38 38h1v1h-1z"/></svg>